<svg aria-hidden="true" style="position:absolute;width:0;height:0;overflow:hidden" xmlns="http://www.w3.org/2000/svg">
    <defs>
        <symbol id="telegram" viewBox="0 0 32 32">
            <path
                d="M16 0a16 16 0 1 0 0 32 16 16 0 0 0 0-32zm7.86 10.97-2.62 12.37c-.18.88-.71 1.09-1.45.68l-4-2.96-1.92 1.87c-.23.22-.4.4-.8.4-.52 0-.43-.2-.6-.69l-1.37-4.47-3.96-1.23c-.85-.26-.86-.85.2-1.27l15.41-5.95c.7-.32 1.38.17 1.11 1.25z" />
        </symbol>
        <symbol id="github" viewBox="0 0 32 32">
            <path
                d="M16 .4a16 16 0 0 0-5.06 31.18c.8.14 1.1-.35 1.1-.77L12 27.83c-4.45.97-5.39-1.89-5.39-1.89-.73-1.85-1.77-2.34-1.77-2.34-1.46-1 .1-.97.1-.97 1.61.1 2.46 1.64 2.46 1.64 1.43 2.45 3.74 1.74 4.65 1.33a3.4 3.4 0 0 1 1.02-2.14c-3.55-.4-7.29-1.77-7.29-7.9a6.2 6.2 0 0 1 1.65-4.3c-.17-.4-.71-2.03.15-4.23 0 0 1.35-.43 4.4 1.64a15.35 15.35 0 0 1 8.02 0c3.05-2.07 4.4-1.64 4.4-1.64.86 2.2.32 3.83.15 4.23a6.18 6.18 0 0 1 1.65 4.3c0 6.14-3.75 7.5-7.3 7.9.57.49 1.08 1.46 1.08 2.96l-.02 4.39c0 .42.29.92 1.1.76A16 16 0 0 0 16 .4z" />
        </symbol>
        <symbol id="linkedin" viewBox="0 0 32 32">
            <path
                d="M29 0H3a3 3 0 0 0-3 3v26a3 3 0 0 0 3 3h26a3 3 0 0 0 3-3V3a3 3 0 0 0-3-3zM12 26H8V12h4v14zm-2-16a2 2 0 1 1 0-4 2 2 0 0 1 0 4zm16 16h-4v-8a2 2 0 1 0-4 0v8h-4V12h4v2.48c.82-1.13 2.09-2.48 3.5-2.48 2.49 0 4.5 2.24 4.5 5v9z" />
        </symbol>
    </defs>
</svg>